<svg width="20" height="20" viewBox="0 0 20 20" fill="none" xmlns="http://www.w3.org/2000/svg">
<path d="M14.4385 6.538C14.2912 6.538 14.153 6.51479 14.0241 6.46837C13.8951 6.42269 13.7754 6.34458 13.6649 6.23406L12.0899 4.65907C11.8688 4.43802 11.7583 4.17534 11.7583 3.87103C11.7583 3.56745 11.8688 3.31435 12.0899 3.11172C12.2925 2.89067 12.5504 2.78014 12.8635 2.78014C13.1767 2.78014 13.4346 2.88146 13.6372 3.08409L14.4385 3.8854L17.5609 0.735428C17.7819 0.514377 18.0398 0.403852 18.3345 0.403852C18.6293 0.403852 18.8964 0.514377 19.1358 0.735428C19.3385 0.956478 19.4398 1.22358 19.4398 1.53674C19.4398 1.84989 19.3385 2.10778 19.1358 2.31041L15.2122 6.23406C15.1017 6.34458 14.9819 6.42269 14.853 6.46837C14.7241 6.51479 14.5859 6.538 14.4385 6.538ZM1.81102 19.6076C1.44261 19.755 1.09261 19.7225 0.761035 19.5103C0.429459 19.2989 0.263672 18.9905 0.263672 18.5852V2.58672C0.263672 1.97884 0.480301 1.45826 0.91356 1.025C1.34608 0.592482 1.86629 0.376221 2.47418 0.376221H10.2109C9.84252 0.928847 9.56621 1.45863 9.382 1.96557C9.19779 2.47178 9.10569 3.04725 9.10569 3.69198C9.10569 5.01828 9.52458 6.188 10.3624 7.20115C11.2009 8.2143 12.2557 8.84982 13.5267 9.10771C13.9504 9.16297 14.3188 9.1906 14.6319 9.1906C14.9451 9.1906 15.3135 9.16297 15.7372 9.10771V18.5852C15.7372 18.9905 15.5714 19.2989 15.2398 19.5103C14.9083 19.7225 14.5583 19.755 14.1898 19.6076L8.00043 16.955L1.81102 19.6076Z" fill="white"/>
</svg>
