<svg width="35" height="35" viewBox="0 0 35 35" fill="none" xmlns="http://www.w3.org/2000/svg">
<path d="M33.8553 18.634C33.514 18.2895 33.1082 18.0161 32.6612 17.8293C32.2143 17.6426 31.735 17.5463 31.2508 17.5459H31.2385C30.7522 17.5444 30.2705 17.6399 29.8213 17.8267C29.372 18.0134 28.9643 18.2879 28.6216 18.634L22.5747 24.7011C22.5081 23.7681 22.0924 22.895 21.4109 22.2567C20.7295 21.6184 19.8327 21.2623 18.9005 21.2597H10.2639C8.62841 21.2616 7.06044 21.9144 5.90396 23.0747C4.74748 24.2351 4.0969 25.8083 4.09494 27.4493V28.275L0.393555 33.2217L2.36763 34.7072L6.56254 29.0994V27.4493C6.56352 26.4646 6.9538 25.5206 7.64773 24.8243C8.34166 24.1281 9.28256 23.7365 10.2639 23.7355H18.9005C19.2277 23.7355 19.5415 23.8659 19.7729 24.0981C20.0043 24.3302 20.1343 24.6451 20.1343 24.9734C20.1343 25.3017 20.0043 25.6166 19.7729 25.8488C19.5415 26.0809 19.2277 26.2113 18.9005 26.2113H13.9653V28.6872H20.0467C20.695 28.689 21.3373 28.5616 21.9362 28.3126C22.5351 28.0635 23.0788 27.6977 23.5359 27.2363L30.3662 20.3844C30.4804 20.2691 30.6164 20.1776 30.7661 20.1154C30.9158 20.0531 31.0764 20.0213 31.2385 20.0217H31.2422C31.4858 20.0225 31.7238 20.0957 31.9261 20.232C32.1284 20.3683 32.2859 20.5617 32.3788 20.7877C32.4717 21.0137 32.4958 21.2622 32.4481 21.502C32.4004 21.7418 32.283 21.962 32.1108 22.1349L22.9634 31.3128C22.6204 31.659 22.2124 31.9334 21.763 32.1201C21.3136 32.3069 20.8317 32.4024 20.3453 32.401H11.4977V34.8768H20.3453C21.1559 34.8791 21.9589 34.72 22.7078 34.4087C23.4566 34.0974 24.1365 33.6401 24.708 33.0633L33.8553 23.8853C34.1991 23.5405 34.4718 23.1312 34.6578 22.6807C34.8438 22.2302 34.9396 21.7473 34.9396 21.2597C34.9396 20.772 34.8438 20.2891 34.6578 19.8386C34.4718 19.3881 34.1991 18.9788 33.8553 18.634ZM24.5587 8.36793L20.1343 12.5942V0.214966H17.6667V12.5942L13.2423 8.36793L11.4977 10.1183L18.9005 17.5459L26.3033 10.1183L24.5587 8.36793Z" fill="white"/>
</svg>
