<svg width="41" height="41" viewBox="0 0 41 41" fill="none" xmlns="http://www.w3.org/2000/svg">
<path d="M36.8553 21.634C36.514 21.2895 36.1082 21.0161 35.6612 20.8293C35.2143 20.6426 34.735 20.5463 34.2508 20.5459H34.2385C33.7522 20.5444 33.2705 20.6399 32.8213 20.8267C32.372 21.0134 31.9643 21.2879 31.6216 21.634L25.5747 27.7011C25.5081 26.7681 25.0924 25.895 24.4109 25.2567C23.7295 24.6184 22.8327 24.2623 21.9005 24.2597H13.2639C11.6284 24.2616 10.0604 24.9144 8.90396 26.0747C7.74748 27.2351 7.0969 28.8083 7.09494 30.4493V31.275L3.39355 36.2217L5.36763 37.7072L9.56254 32.0994V30.4493C9.56352 29.4646 9.9538 28.5206 10.6477 27.8243C11.3417 27.1281 12.2826 26.7365 13.2639 26.7355H21.9005C22.2277 26.7355 22.5415 26.8659 22.7729 27.0981C23.0043 27.3302 23.1343 27.6451 23.1343 27.9734C23.1343 28.3017 23.0043 28.6166 22.7729 28.8488C22.5415 29.0809 22.2277 29.2113 21.9005 29.2113H16.9653V31.6872H23.0467C23.695 31.689 24.3373 31.5616 24.9362 31.3126C25.5351 31.0635 26.0788 30.6977 26.5359 30.2363L33.3662 23.3844C33.4804 23.2691 33.6164 23.1776 33.7661 23.1154C33.9158 23.0531 34.0764 23.0213 34.2385 23.0217H34.2422C34.4858 23.0225 34.7238 23.0957 34.9261 23.232C35.1284 23.3683 35.2859 23.5617 35.3788 23.7877C35.4717 24.0137 35.4958 24.2622 35.4481 24.502C35.4004 24.7418 35.283 24.962 35.1108 25.1349L25.9634 34.3128C25.6204 34.659 25.2124 34.9334 24.763 35.1201C24.3136 35.3069 23.8317 35.4024 23.3453 35.401H14.4977V37.8768H23.3453C24.1559 37.8791 24.9589 37.72 25.7078 37.4087C26.4566 37.0974 27.1365 36.6401 27.708 36.0633L36.8553 26.8853C37.1991 26.5405 37.4718 26.1312 37.6578 25.6807C37.8438 25.2302 37.9396 24.7473 37.9396 24.2597C37.9396 23.772 37.8438 23.2891 37.6578 22.8386C37.4718 22.3881 37.1991 21.9788 36.8553 21.634ZM27.5587 11.3679L23.1343 15.5942V3.21497H20.6667V15.5942L16.2423 11.3679L14.4977 13.1183L21.9005 20.5459L29.3033 13.1183L27.5587 11.3679Z" fill="#B3B3B3"/>
</svg>
