<svg width="312" height="64" viewBox="0 0 312 64" fill="none" xmlns="http://www.w3.org/2000/svg">
<path d="M39.06 21.9192C44.4779 23.6493 47.1868 28.0883 47.1868 35.2363C47.1868 41.2005 44.6372 47.0509 39.538 52.7874C34.4844 58.4785 27.5185 61.324 18.6405 61.324C11.6747 61.324 7.14462 59.298 5.05032 55.246C4.32186 53.8801 3.95764 52.4915 3.95764 51.0801C3.95764 49.6232 4.32186 48.1435 5.05032 46.6411C6.41617 43.7273 8.39665 42.2704 10.9918 42.2704C11.2194 42.2704 11.3788 42.407 11.4698 42.6801C11.5609 42.9078 11.5381 43.1582 11.4015 43.4314C11.3105 43.7045 11.1511 43.8411 10.9235 43.8411C9.37551 43.8411 8.07795 44.8427 7.0308 46.846C6.30235 48.1663 5.93812 49.4183 5.93812 50.6021C5.93812 51.7858 6.21129 52.924 6.75763 54.0167C8.35112 57.1126 11.9023 58.6606 17.4113 58.6606C24.3316 58.6606 30.3413 55.7468 35.4405 49.9192C39.4014 45.4574 41.8372 40.5631 42.7478 35.2363C42.9754 33.9615 43.0892 32.7777 43.0892 31.6851C43.0892 28.5436 42.1559 26.1989 40.2892 24.6509C39.2876 23.8314 38.0584 23.3534 36.6015 23.2168C34.1429 24.2639 31.5023 24.7875 28.6795 24.7875C28.3608 24.7875 28.2015 24.4916 28.2015 23.8997C28.2015 23.2623 28.3608 22.9436 28.6795 22.9436C33.2779 22.9436 37.3071 20.781 40.7673 16.4558C43.3169 13.2233 44.6827 10.0591 44.8648 6.96317C44.7738 4.23147 43.7039 2.79733 41.6551 2.66074C39.4242 2.66074 37.034 4.25423 34.4844 7.44122C31.9348 10.6282 29.6356 14.4981 27.5868 19.0509C25.5381 23.6038 23.6486 28.2704 21.9186 33.0509C20.234 37.7859 18.9137 41.8606 17.9576 45.2753C17.0015 48.6444 16.5235 50.6248 16.5235 51.2167C16.5235 51.8086 16.2048 52.1045 15.5674 52.1045C14.2015 52.1045 13.5186 50.2834 13.5186 46.6411C13.5186 37.8541 14.4974 29.3176 16.4552 21.0314C18.4584 12.7453 20.6665 7.21358 23.0795 4.43635C16.569 5.34692 11.2877 7.6461 7.23568 11.3339C4.91373 13.3827 3.75276 15.6136 3.75276 18.0266C3.75276 19.2103 4.20804 19.8022 5.11861 19.8022C4.93649 20.4396 4.43568 20.7583 3.61617 20.7583C2.79666 20.7583 2.06821 20.4396 1.43081 19.8022C0.838945 19.1648 0.543011 18.277 0.543011 17.1388C0.543011 14.4526 2.15927 11.9713 5.39178 9.69487C8.66982 7.37293 12.1983 5.66561 15.9771 4.57294C19.756 3.43472 22.9657 2.86562 25.6064 2.86562C26.3348 2.86562 26.699 3.22985 26.699 3.9583C23.7397 10.8331 21.0535 20.8721 18.6405 34.0753H19.1869C21.8275 25.8347 24.9462 18.4591 28.5429 11.9485C30.4551 8.44284 32.5722 5.68838 34.8941 3.68513C37.2161 1.63636 39.5836 0.611969 41.9966 0.611969C45.8209 0.611969 48.0974 2.15993 48.8258 5.25586C48.9624 5.89325 49.0307 6.57618 49.0307 7.30464C49.0307 9.76316 48.0746 12.4038 46.1624 15.2266C44.2957 18.0038 41.9283 20.2347 39.06 21.9192ZM91.2162 21.4412C91.2162 13.1095 89.3268 8.94365 85.548 8.94365C85.548 8.62496 85.7073 8.32902 86.026 8.05585C86.6179 7.55504 87.3463 7.30464 88.2114 7.30464C91.2618 7.30464 93.265 9.67211 94.2211 14.4071C94.6309 16.3192 94.8357 18.3453 94.8357 20.4851C94.8357 24.5371 94.1301 29.0444 92.7187 34.007C90.3512 42.5208 86.7772 48.872 81.9968 53.0606C78.7187 55.9289 75.1903 57.363 71.4114 57.363C65.2651 57.363 61.0992 54.2443 58.9139 48.007C57.8667 45.0931 57.3432 41.8606 57.3432 38.3094C57.3432 34.7582 57.844 30.9111 58.8456 26.768C60.8944 18.5274 64.2407 11.9258 68.8846 6.96317C72.8911 2.68351 77.1935 0.543676 81.7919 0.543676C83.0667 0.543676 84.0455 0.83961 84.7285 1.43148C85.4114 1.97782 85.7528 2.54692 85.7528 3.13879L85.8211 3.9583C85.3658 3.77619 84.5236 3.68513 83.2943 3.68513C78.3773 3.68513 74.0065 6.82659 70.1822 13.1095C66.4033 19.3924 64.0814 26.4721 63.2163 34.3485C62.9887 36.3517 62.8749 38.1956 62.8749 39.8802C62.8749 45.0704 63.8992 49.0541 65.948 51.8313C67.587 53.9712 69.7269 55.0411 72.3675 55.0411C77.8764 55.0411 82.3837 51.285 85.8894 43.7728C89.4406 36.2151 91.2162 28.7712 91.2162 21.4412ZM143.705 6.82659C143.705 4.04936 142.59 2.66074 140.359 2.66074C137.992 2.66074 135.488 4.29976 132.847 7.57781C130.252 10.8103 127.953 14.7485 125.949 19.3924C123.946 23.9908 122.102 28.7029 120.418 33.529C118.779 38.3094 117.504 42.3614 116.593 45.685C115.683 48.9631 115.227 50.807 115.227 51.2167C115.227 51.8086 114.909 52.1045 114.271 52.1045C112.906 52.1045 112.223 50.2834 112.223 46.6411C112.223 37.8541 113.201 29.3176 115.159 21.0314C117.162 12.7453 119.371 7.21358 121.784 4.43635C115.273 5.34692 109.992 7.6461 105.94 11.3339C103.618 13.3827 102.457 15.6136 102.457 18.0266C102.457 19.2103 102.912 19.8022 103.823 19.8022C103.641 20.4396 103.14 20.7583 102.32 20.7583C101.501 20.7583 100.772 20.4396 100.135 19.8022C99.543 19.1648 99.247 18.277 99.247 17.1388C99.247 14.4526 100.863 11.9713 104.096 9.69487C107.374 7.37293 110.902 5.66561 114.681 4.57294C118.46 3.43472 121.67 2.86562 124.31 2.86562C125.039 2.86562 125.403 3.22985 125.403 3.9583C122.216 11.3339 119.507 21.6233 117.276 34.8265H117.754C119.758 28.2249 121.829 22.7387 123.969 18.368C126.109 13.9518 127.975 10.6282 129.569 8.39731C131.162 6.1209 132.915 4.25423 134.827 2.79733C136.785 1.34042 138.743 0.611969 140.701 0.611969C144.707 0.611969 147.097 2.34205 147.871 5.8022C148.053 6.57618 148.144 7.39569 148.144 8.26073C148.144 11.038 147.188 14.0656 145.276 17.3436C142.544 22.033 138.879 25.3111 134.281 27.1778L131.686 27.9973C133.006 28.1338 134.395 29.9322 135.852 33.3924C137.354 36.807 138.675 40.5631 139.813 44.6606C140.951 48.7127 142.317 52.4232 143.91 55.7923C145.504 59.1614 147.075 60.846 148.622 60.846C149.852 60.846 150.762 60.4134 151.354 59.5484C151.673 59.5484 151.832 59.6622 151.832 59.8899C151.832 60.1175 151.696 60.4362 151.422 60.846C150.421 62.2118 149.192 62.963 147.735 63.0996C145.367 63.0996 143.068 61.4833 140.837 58.2508C138.652 55.0183 136.876 51.4444 135.51 47.5289C134.144 43.5679 132.688 39.6297 131.14 35.7143C129.637 31.7989 128.362 29.3859 127.315 28.4753C126.814 28.4753 126.405 28.3387 126.086 28.0656C125.813 27.7469 125.653 27.2688 125.608 26.6314C130.434 26.6314 134.759 24.2184 138.583 19.3924C141.998 15.0672 143.705 10.8786 143.705 6.82659ZM193.724 6.82659C193.724 4.04936 192.609 2.66074 190.378 2.66074C188.011 2.66074 185.506 4.29976 182.866 7.57781C180.271 10.8103 177.972 14.7485 175.968 19.3924C173.965 23.9908 172.121 28.7029 170.437 33.529C168.798 38.3094 167.523 42.3614 166.612 45.685C165.702 48.9631 165.246 50.807 165.246 51.2167C165.246 51.8086 164.928 52.1045 164.29 52.1045C162.924 52.1045 162.242 50.2834 162.242 46.6411C162.242 37.8541 163.22 29.3176 165.178 21.0314C167.181 12.7453 169.389 7.21358 171.802 4.43635C165.292 5.34692 160.011 7.6461 155.959 11.3339C153.637 13.3827 152.476 15.6136 152.476 18.0266C152.476 19.2103 152.931 19.8022 153.842 19.8022C153.659 20.4396 153.159 20.7583 152.339 20.7583C151.52 20.7583 150.791 20.4396 150.154 19.8022C149.562 19.1648 149.266 18.277 149.266 17.1388C149.266 14.4526 150.882 11.9713 154.115 9.69487C157.393 7.37293 160.921 5.66561 164.7 4.57294C168.479 3.43472 171.689 2.86562 174.329 2.86562C175.058 2.86562 175.422 3.22985 175.422 3.9583C172.235 11.3339 169.526 21.6233 167.295 34.8265H167.773C169.776 28.2249 171.848 22.7387 173.988 18.368C176.128 13.9518 177.994 10.6282 179.588 8.39731C181.181 6.1209 182.934 4.25423 184.846 2.79733C186.804 1.34042 188.762 0.611969 190.719 0.611969C194.726 0.611969 197.116 2.34205 197.89 5.8022C198.072 6.57618 198.163 7.39569 198.163 8.26073C198.163 11.038 197.207 14.0656 195.295 17.3436C192.563 22.033 188.898 25.3111 184.3 27.1778L181.705 27.9973C183.025 28.1338 184.414 29.9322 185.871 33.3924C187.373 36.807 188.693 40.5631 189.832 44.6606C190.97 48.7127 192.336 52.4232 193.929 55.7923C195.523 59.1614 197.093 60.846 198.641 60.846C199.871 60.846 200.781 60.4134 201.373 59.5484C201.692 59.5484 201.851 59.6622 201.851 59.8899C201.851 60.1175 201.715 60.4362 201.441 60.846C200.44 62.2118 199.211 62.963 197.754 63.0996C195.386 63.0996 193.087 61.4833 190.856 58.2508C188.671 55.0183 186.895 51.4444 185.529 47.5289C184.163 43.5679 182.707 39.6297 181.159 35.7143C179.656 31.7989 178.381 29.3859 177.334 28.4753C176.833 28.4753 176.424 28.3387 176.105 28.0656C175.832 27.7469 175.672 27.2688 175.627 26.6314C180.453 26.6314 184.778 24.2184 188.602 19.3924C192.017 15.0672 193.724 10.8786 193.724 6.82659ZM237.938 21.4412C237.938 13.1095 236.049 8.94365 232.27 8.94365C232.27 8.62496 232.429 8.32902 232.748 8.05585C233.34 7.55504 234.069 7.30464 234.934 7.30464C237.984 7.30464 239.987 9.67211 240.943 14.4071C241.353 16.3192 241.558 18.3453 241.558 20.4851C241.558 24.5371 240.852 29.0444 239.441 34.007C237.073 42.5208 233.499 48.872 228.719 53.0606C225.441 55.9289 221.912 57.363 218.134 57.363C211.987 57.363 207.821 54.2443 205.636 48.007C204.589 45.0931 204.065 41.8606 204.065 38.3094C204.065 34.7582 204.566 30.9111 205.568 26.768C207.617 18.5274 210.963 11.9258 215.607 6.96317C219.613 2.68351 223.916 0.543676 228.514 0.543676C229.789 0.543676 230.768 0.83961 231.451 1.43148C232.134 1.97782 232.475 2.54692 232.475 3.13879L232.543 3.9583C232.088 3.77619 231.246 3.68513 230.016 3.68513C225.099 3.68513 220.729 6.82659 216.904 13.1095C213.125 19.3924 210.804 26.4721 209.938 34.3485C209.711 36.3517 209.597 38.1956 209.597 39.8802C209.597 45.0704 210.621 49.0541 212.67 51.8313C214.309 53.9712 216.449 55.0411 219.09 55.0411C224.599 55.0411 229.106 51.285 232.612 43.7728C236.163 36.2151 237.938 28.7712 237.938 21.4412ZM284.076 41.8606C284.076 47.9614 285.442 51.0118 288.174 51.0118C290.268 51.0118 292.385 49.1679 294.525 45.4801C296.711 41.7923 298.509 37.3078 299.92 32.0265C301.332 26.6997 302.083 21.6688 302.174 16.9339C299.943 15.1127 297.917 12.7453 296.096 9.83146C294.275 6.91764 293.364 5.05098 293.364 4.23147C293.364 3.36643 293.751 2.52416 294.525 1.70465C295.299 0.839612 296.119 0.407094 296.984 0.407094C298.896 0.407094 300.558 1.81847 301.969 4.64122C303.426 7.46398 304.223 10.8786 304.359 14.8851C306.044 16.342 307.501 17.0705 308.73 17.0705C309.959 17.0705 310.756 16.6835 311.12 15.9095C311.667 15.9095 311.94 16.251 311.94 16.9339C311.94 18.2087 311.234 19.0509 309.823 19.4607L308.593 19.5973C307.182 19.5973 305.771 19.1875 304.359 18.368C304.086 23.5582 303.198 28.8395 301.696 34.2119C300.193 39.5842 298.213 44.1371 295.754 47.8704C293.296 51.5582 290.769 53.4021 288.174 53.4021C284.532 53.4021 282.005 51.6265 280.593 48.0753C279.455 45.207 278.886 41.7696 278.886 37.7631C278.886 36.7159 278.932 35.646 279.023 34.5533C270.327 50.4427 263.384 58.3874 258.194 58.3874C255.963 58.3874 254.847 57.363 254.847 55.3143C254.847 55.2232 254.847 55.1094 254.847 54.9728C260.265 40.3127 262.974 27.9517 262.974 17.89C262.974 10.1046 260.743 6.21195 256.281 6.21195C253.459 6.21195 251.478 7.41845 250.34 9.83146C249.976 10.6054 249.794 11.2656 249.794 11.8119C249.794 12.3583 249.953 12.6314 250.272 12.6314C250.181 13.2688 249.657 13.5875 248.701 13.5875C247.745 13.5875 247.267 12.9729 247.267 11.7436C247.267 9.87698 248.2 8.2152 250.067 6.75829C251.979 5.30139 254.324 4.57294 257.101 4.57294C263.976 4.57294 267.413 9.83146 267.413 20.3485C267.413 24.2639 266.958 28.6574 266.047 33.529C265.137 38.355 264.363 41.8151 263.725 43.9094C263.133 45.9582 262.041 49.5322 260.447 54.6313C260.311 55.1321 260.424 55.3826 260.789 55.3826C261.107 55.337 261.494 55.1321 261.95 54.7679C265.137 51.9907 268.278 48.1208 271.374 43.1582C275.836 35.8281 279.114 29.1127 281.208 23.0119C283.439 16.0916 285.579 12.6314 287.628 12.6314C288.538 12.6314 288.993 13.1095 288.993 14.0656C287.901 17.5257 286.535 23.8542 284.896 33.0509C284.35 36.2834 284.076 39.22 284.076 41.8606ZM297.462 2.52416C297.28 2.61522 297.189 2.82009 297.189 3.13879C297.189 3.45749 297.257 3.93554 297.393 4.57294C297.576 5.21033 298.122 6.34854 299.032 7.98756C299.943 9.62658 300.945 11.1062 302.037 12.4266C301.719 9.60382 301.081 7.25911 300.125 5.39244C299.215 3.48026 298.327 2.52416 297.462 2.52416Z" fill="white"/>
</svg>
