<svg width="19" height="20" viewBox="0 0 19 20" fill="none" xmlns="http://www.w3.org/2000/svg">
<path d="M16.5309 10.2118C16.5309 9.99461 16.5214 9.78683 16.5025 9.56959L18.2593 8.23787C18.6371 7.95452 18.741 7.42561 18.5048 7.01003L16.7387 3.95934C16.6254 3.75928 16.4422 3.60812 16.2243 3.5349C16.0064 3.46168 15.7691 3.47157 15.558 3.56265L13.5274 4.42214C13.1779 4.17657 12.8096 3.95934 12.4223 3.77988L12.1484 1.59812C12.0918 1.12587 11.6856 0.766968 11.2134 0.766968H7.69046C7.20877 0.766968 6.80264 1.12587 6.74597 1.59812L6.47207 3.77988C6.08483 3.95934 5.71648 4.17657 5.36702 4.42214L3.33637 3.56265C2.90191 3.37375 2.39188 3.54376 2.15576 3.95934L0.38957 7.01948C0.153448 7.43505 0.257342 7.95452 0.635137 8.24731L2.39188 9.57904C2.35273 10.0032 2.35273 10.43 2.39188 10.8541L0.635137 12.1858C0.257342 12.4692 0.153448 12.9981 0.38957 13.4137L2.15576 16.4644C2.39188 16.8799 2.90191 17.0499 3.33637 16.861L5.36702 16.0016C5.71648 16.2471 6.08483 16.4644 6.47207 16.6438L6.74597 18.8256C6.80264 19.2978 7.20877 19.6567 7.68102 19.6567H11.204C11.6762 19.6567 12.0823 19.2978 12.139 18.8256L12.4129 16.6438C12.8001 16.4644 13.1685 16.2471 13.518 16.0016L15.5486 16.861C15.9831 17.0499 16.4931 16.8799 16.7292 16.4644L18.4954 13.4137C18.7315 12.9981 18.6276 12.4786 18.2498 12.1858L16.4931 10.8541C16.5214 10.6369 16.5309 10.4291 16.5309 10.2118ZM9.48499 13.5176C7.66213 13.5176 6.17928 12.0347 6.17928 10.2118C6.17928 8.38899 7.66213 6.90614 9.48499 6.90614C11.3078 6.90614 12.7907 8.38899 12.7907 10.2118C12.7907 12.0347 11.3078 13.5176 9.48499 13.5176Z" fill="white"/>
</svg>
