<svg width="21" height="23" viewBox="0 0 21 23" fill="none" xmlns="http://www.w3.org/2000/svg">
<path d="M14.6319 17.2923V13.9765H6.89518V9.55551H14.6319V6.23976L20.1582 11.766L14.6319 17.2923ZM12.4214 0.713501C13.0077 0.713501 13.57 0.946393 13.9845 1.36094C14.3991 1.77549 14.6319 2.33774 14.6319 2.924V5.13451H12.4214V2.924H2.47418V20.608H12.4214V18.3975H14.6319V20.608C14.6319 21.1943 14.3991 21.7565 13.9845 22.1711C13.57 22.5856 13.0077 22.8185 12.4214 22.8185H2.47418C1.88791 22.8185 1.32566 22.5856 0.911113 22.1711C0.496563 21.7565 0.263672 21.1943 0.263672 20.608V2.924C0.263672 2.33774 0.496563 1.77549 0.911113 1.36094C1.32566 0.946393 1.88791 0.713501 2.47418 0.713501H12.4214Z" fill="white"/>
</svg>
